<svg xmlns="http://www.w3.org/2000/svg" xmlns:xlink="http://www.w3.org/1999/xlink" version="1.1" id="Glyphs_-_Web" x="0px" y="0px" viewBox="0 0 40 40" enable-background="new 0 0 40 40" xml:space="preserve" height="100px" width="100px">
<path id="Cloud_Camera_1_" fill-rule="evenodd" clip-rule="evenodd" fill="#ffffff" d="M20.8,16C16,16,12,19.9,12,24.5c0,4.7,3.8,8.5,8.5,8.5  c4.7,0,8.5-3.8,8.5-8.5C29,19.7,25.4,16,20.8,16z M20.5,31c-3.6,0-6.5-2.9-6.5-6.5c0-3.5,3.1-6.5,6.7-6.5c3.5,0,6.3,2.9,6.3,6.5  C27,28.1,24.1,31,20.5,31z M30.8,15.9c0-0.2,0-0.5,0-0.7c0-4.5-3.7-8.1-8.3-8.1c-3.2,0-6,1.8-7.4,4.4c-0.6-0.4-1.4-0.7-2.2-0.7  c-2.1,0-3.8,1.7-3.8,3.8c0,0.5,0.1,1,0.3,1.4c-0.1,0-0.2,0-0.2,0c-2.9,0-5.2,2.3-5.2,5c0,2.8,2.3,5,5.2,5h1C10,25.5,10,25,10,24.5  C10,18.7,14.7,14,20.5,14C26.3,14,31,18.7,31,24.5c0,0.5,0,1-0.1,1.5c2.8,0,5.1-2.3,5.1-5C36,18.1,33.7,15.9,30.8,15.9z M20.5,20  c-0.6,0-1.2,0.1-1.7,0.3c0.5,0.3,0.8,0.8,0.8,1.5c0,1-0.8,1.8-1.8,1.8c-0.6,0-1.1-0.3-1.5-0.8c-0.2,0.5-0.3,1.1-0.3,1.7  c0,2.5,2,4.5,4.5,4.5c2.5,0,4.5-2,4.5-4.5C25,22,23,20,20.5,20z"/>
</svg>